<svg xmlns="http://www.w3.org/2000/svg" width="48" height="48" fill="none"><path fill="#FF5700" d="M24 48c13.255 0 24-10.745 24-24S37.255 0 24 0 0 10.745 0 24s10.745 24 24 24Z"/><path fill="#fff" fill-rule="evenodd" d="M41.6 23.688c0-2.195-1.794-3.982-3.999-3.982a3.988 3.988 0 0 0-2.632.993c-2.506-1.602-5.818-2.645-9.486-2.827l1.929-6.07 5.262 1.234a3.31 3.31 0 0 0 3.31 3.19 3.31 3.31 0 0 0 3.314-3.3c0-1.82-1.488-3.3-3.315-3.3a3.318 3.318 0 0 0-3 1.907l-5.914-1.385a.77.77 0 0 0-.91.515l-2.283 7.185c-3.905.076-7.448 1.126-10.103 2.799a3.99 3.99 0 0 0-2.574-.94c-2.206 0-3.999 1.785-3.999 3.98 0 1.398.729 2.627 1.826 3.337a6.984 6.984 0 0 0-.086 1.083c0 5.66 6.903 10.266 15.39 10.266 8.486 0 15.39-4.605 15.39-10.266a7.01 7.01 0 0 0-.074-1.006 3.973 3.973 0 0 0 1.954-3.413ZM35.983 11.16c.979 0 1.775.793 1.775 1.767 0 .974-.796 1.767-1.775 1.767a1.772 1.772 0 0 1-1.774-1.767c0-.974.796-1.767 1.774-1.767ZM11.198 21.24a2.456 2.456 0 0 0-2.458 2.448c0 .68.281 1.297.734 1.74.58-1.426 1.606-2.732 2.977-3.842a2.447 2.447 0 0 0-1.253-.346Zm26.982 6.868c0 4.814-6.214 8.732-13.85 8.732-7.637 0-13.85-3.917-13.85-8.733a5.767 5.767 0 0 1 .37-2.001c.47-1.257 1.37-2.41 2.6-3.394.394-.315.82-.612 1.277-.89 2.492-1.514 5.877-2.448 9.603-2.448 3.78 0 7.21.96 9.71 2.514.458.284.883.588 1.275.91 1.18.969 2.044 2.098 2.5 3.326a5.772 5.772 0 0 1 .365 1.984Zm-1.914-6.472c1.371 1.123 2.395 2.442 2.958 3.884.511-.448.835-1.103.836-1.832a2.456 2.456 0 0 0-3.794-2.052Z" clip-rule="evenodd"/><path fill="#fff" d="M21.617 26.262c0-1.293-1.053-2.378-2.352-2.378s-2.388 1.085-2.388 2.378c0 1.292 1.09 2.342 2.388 2.342a2.349 2.349 0 0 0 2.352-2.342zm7.954-2.379c-1.299 0-2.392 1.085-2.392 2.378 0 1.293 1.093 2.342 2.392 2.342a2.348 2.348 0 0 0 2.352-2.343c0-1.293-1.053-2.377-2.352-2.377zm-.665 8.055c-.871.866-2.338 1.287-4.488 1.287l-.019.002-.018-.002c-2.15 0-3.618-.42-4.488-1.287-.3-.3-.788-.3-1.089 0a.763.763 0 0 0 0 1.084c1.173 1.168 2.998 1.737 5.577 1.737l.018-.003c.006 0 .012.003.019.003 2.579 0 4.404-.569 5.578-1.736a.763.763 0 0 0 0-1.084.775.775 0 0 0-1.09-.001z"/></svg>